<?xml version="1.0" encoding="UTF-8" standalone="no"?>
<svg
   xmlns:dc="http://purl.org/dc/elements/1.1/"
   xmlns:cc="http://creativecommons.org/ns#"
   xmlns:rdf="http://www.w3.org/1999/02/22-rdf-syntax-ns#"
   xmlns:svg="http://www.w3.org/2000/svg"
   xmlns="http://www.w3.org/2000/svg"
   xmlns:sodipodi="http://sodipodi.sourceforge.net/DTD/sodipodi-0.dtd"
   xmlns:inkscape="http://www.inkscape.org/namespaces/inkscape"
   version="1.0"
   width="13498.803pt"
   height="8563.7188pt"
   viewBox="0 0 13498.802 8563.7187"
   preserveAspectRatio="xMidYMid meet"
   id="svg2"
   inkscape:version="0.91 r13725"
   sodipodi:docname="spaceship-horz.svg"
   inkscape:export-filename="c:\temp\spaceship.png"
   inkscape:export-xdpi="3.23"
   inkscape:export-ydpi="3.23">
  <metadata
     id="metadata12">
    <rdf:RDF>
      <cc:Work
         rdf:about="">
        <dc:format>image/svg+xml</dc:format>
        <dc:type
           rdf:resource="http://purl.org/dc/dcmitype/StillImage" />
        <dc:title></dc:title>
      </cc:Work>
    </rdf:RDF>
  </metadata>
  <defs
     id="defs10" />
  <sodipodi:namedview
     pagecolor="#ffffff"
     bordercolor="#666666"
     borderopacity="1"
     objecttolerance="10"
     gridtolerance="10"
     guidetolerance="10"
     inkscape:pageopacity="0"
     inkscape:pageshadow="2"
     inkscape:window-width="1920"
     inkscape:window-height="1137"
     id="namedview8"
     showgrid="false"
     fit-margin-top="0"
     fit-margin-left="0"
     fit-margin-right="0"
     fit-margin-bottom="0"
     inkscape:zoom="0.028284271"
     inkscape:cx="-982.28749"
     inkscape:cy="5515.1036"
     inkscape:window-x="1912"
     inkscape:window-y="-8"
     inkscape:window-maximized="1"
     inkscape:current-layer="svg2" />
  <path
     d="m 13372.546,4452.6131 c -103.242,24.0261 -188.089,-11.3422 -229.794,-96.9085 l -14.138,-31.1148 -702.864,-0.1071 -703.572,-0.8144 -126.586,95.4404 c -125.173,95.4404 -341.569,232.5861 -492.902,313.1732 -44.551,23.3279 -82.738,43.121 -85.567,43.1205 -2.828,0 -5.655,-8.4861 -7.067,-19.8001 -2.118,-23.3348 8.489,-28.283 -148.504,70.6881 -369.144,231.8748 -825.972,470.8071 -1226.9282,641.1589 -864.8477,369.6848 -1661.7865,562.6035 -2542.1428,616.9165 -245.3683,14.8119 -1053.5916,15.3958 -1371.7873,-0.209 -301.9324,-14.8953 -690.1299,-41.1175 -989.9394,-66.619 l -229.0998,-18.4197 -192.4354,671.7221 c -106.1226,370.5077 -223.5649,780.6118 -260.3546,912.128 l -68.6255,238.2845 376.1799,5.7142 c 206.4747,2.8599 435.5758,12.7943 509.8207,21.998 159.0961,19.1161 578.398,100.4973 714.1567,138.7018 54.445,14.8575 101.8199,22.6429 106.0633,18.4009 4.9504,-4.9489 43.8401,2.8352 86.9716,16.2767 98.283,31.8348 426.3618,154.9214 427.068,159.8714 0,12.7278 -502.074,185.1865 -511.2649,175.9915 -3.5351,-3.537 -55.8625,6.355 -115.2618,21.903 -188.0978,48.055 -473.0703,103.872 -678.1356,132.126 -177.4876,24.721 -276.483,27.534 -1062.7864,28.829 -948.2303,0.562 -1388.049,-10.819 -1787.5589,-46.942 -32.5264,-2.833 -43.1336,0.701 -43.8425,12.722 -1.4162,12.728 -36.0658,21.915 -140.7201,38.87 -75.6623,12.008 -142.8387,19.777 -147.7881,17.655 -9.8986,-5.659 -12.6108,-767.9205 -3.4186,-767.212 3.5355,0.7077 67.8806,11.3241 144.2462,24.0637 96.1642,15.571 141.417,28.3057 149.9004,41.035 9.8973,14.1436 44.5454,14.8561 182.4332,2.8563 225.5698,-19.0575 518.3138,-30.3267 952.4792,-37.3323 l 356.3823,-5.6021 -29.5504,-970.155 -29.5506,-970.1549 -94.7505,-11.3282 c -359.9109,-43.1883 -1165.9948,-160.691 -1607.9253,-233.5904 -151.317,-25.4789 -277.1798,-41.0543 -279.3019,-34.6907 -4.9512,9.1916 -1039.52828,530.172 -1052.9634,530.8771 -2.12123,-0.7075 -92.61945,-75.6746 -202.20711,-166.9081 L 0.24294937,5797.614 0.47494937,4278.7483 -3.9062504e-4,2759.1759 61.525759,2707.5665 c 33.94546,-28.2791 123.759551,-103.9258 200.136801,-167.5538 l 138.61062,-115.9444 510.49257,253.2221 c 280.70005,139.3427 521.09785,261.0018 532.41005,270.9029 19.0895,14.8522 48.7883,13.4425 185.9704,-9.1641 482.9664,-81.2435 1207.0604,-190.0276 1614.3619,-242.2914 101.1183,-13.4197 185.9733,-27.5488 188.0954,-32.4983 2.122,-4.9494 9.2147,-146.3696 13.483,-314.6605 5.6824,-168.2905 17.7668,-584.7745 28.4253,-924.8912 9.9512,-339.4097 19.1884,-632.85769 19.1912,-651.24249 l 1.4194,-33.9409 -362.7455,-2.1765 c -376.8873,-3.5929 -714.1754,-15.6653 -975.8017,-36.9183 -113.8428,-9.2098 -152.0268,-7.8013 -154.15,4.2191 -0.7089,12.0207 -39.6015,22.6214 -148.4986,40.9896 l -147.7889,23.312 -2.063,-382.5452 c -1.3824,-209.3038 0.058,-383.252004 2.8871,-386.07980403 3.5359,-2.12089997 70.7097,7.08170003 150.6109,19.11480003 98.9924,16.9857 144.2454,28.3062 144.951,38.913 2.1197,10.6069 65.7593,10.6167 216.3748,0.033 383.256,-26.8117 634.9869,-32.4302 1576.8531,-32.2866 824.4865,0.1256 947.5226,2.9728 1100.9616,24.9165 212.1273,31.145 429.9098,72.190404 630.7207,121.718504 83.4355,19.8117 154.1441,33.9647 157.6802,30.4296 9.1937,-9.191 509.7988,164.8336 509.7969,177.5615 -7e-4,5.6569 -262.3527,105.319 -386.8098,146.3122 -55.1571,18.3764 -111.7277,32.5099 -124.4554,31.0938 -13.4348,-2.1236 -72.8335,9.1813 -131.5257,24.0214 -176.0764,44.5209 -459.6347,100.3391 -649.1434,127.1804 -132.9389,18.3645 -271.5329,25.4144 -548.7192,28.2005 -217.0819,0.6739 -369.8181,7.722 -370.5263,15.5 0.7048,14.8493 513.0847,1801.78609 517.3275,1800.37259 19.7997,-4.2396 604.5845,-52.9408 779.9487,-64.2279 1064.2066,-71.2555 1880.9127,-56.2817 2520.1217,45.6391 1025.2798,164.205 2129.7157,592.8801 3075.7319,1195.4791 65.755,41.7293 123.026,76.3863 126.561,77.0939 3.536,-0.7065 6.365,-9.1914 7.781,-19.0906 1.417,-16.9704 13.437,-13.433 78.485,21.9324 218.479,118.1198 448.973,266.6474 562.096,361.4169 l 60.803,52.3351 710.642,0.8155 c 497.096,0.7829 710.643,-3.4272 715.595,-14.0332 33.953,-83.4335 89.114,-118.7804 182.451,-117.3519 77.074,2.1331 127.982,30.4251 157.672,89.8265 21.206,41.0155 26.851,114.5554 14.118,156.98 -14.149,42.4242 -77.091,102.5186 -119.519,112.4116 z"
     id="spaceship"
     inkscape:connector-curvature="0"
     style="fill:#ffffff;fill-opacity:1" />
</svg>
