<?xml version="1.0" encoding="UTF-8" standalone="no"?>
<svg
   xmlns:dc="http://purl.org/dc/elements/1.1/"
   xmlns:cc="http://creativecommons.org/ns#"
   xmlns:rdf="http://www.w3.org/1999/02/22-rdf-syntax-ns#"
   xmlns:svg="http://www.w3.org/2000/svg"
   xmlns="http://www.w3.org/2000/svg"
   xmlns:sodipodi="http://sodipodi.sourceforge.net/DTD/sodipodi-0.dtd"
   xmlns:inkscape="http://www.inkscape.org/namespaces/inkscape"
   version="1.0"
   width="11415.731pt"
   height="11425.952pt"
   viewBox="0 0 11415.731 11425.952"
   preserveAspectRatio="xMidYMid meet"
   id="svg2"
   inkscape:version="0.91 r13725"
   sodipodi:docname="spaceship.svg">
  <metadata
     id="metadata12">
    <rdf:RDF>
      <cc:Work
         rdf:about="">
        <dc:format>image/svg+xml</dc:format>
        <dc:type
           rdf:resource="http://purl.org/dc/dcmitype/StillImage" />
        <dc:title></dc:title>
      </cc:Work>
    </rdf:RDF>
  </metadata>
  <defs
     id="defs10" />
  <sodipodi:namedview
     pagecolor="#ffffff"
     bordercolor="#666666"
     borderopacity="1"
     objecttolerance="10"
     gridtolerance="10"
     guidetolerance="10"
     inkscape:pageopacity="0"
     inkscape:pageshadow="2"
     inkscape:window-width="1536"
     inkscape:window-height="801"
     id="namedview8"
     showgrid="false"
     fit-margin-top="0"
     fit-margin-left="0"
     fit-margin-right="0"
     fit-margin-bottom="0"
     inkscape:zoom="0.013037281"
     inkscape:cx="-10467.969"
     inkscape:cy="7866.6659"
     inkscape:window-x="-8"
     inkscape:window-y="-8"
     inkscape:window-maximized="1"
     inkscape:current-layer="svg2" />
  <path
     d="m 11397,273.93919 c -56,90.0002 -141,125.0002 -231,94.0002 l -32,-12 -497,497 -498,497.00001 -22,157.0005 c -21,156 -77,406 -126.9996,570 -15,48 -28,89 -30,91 -2,2 -10,-2 -19,-9 -18,-15 -14,-26 -55,155 -97,425 -251,917 -414,1321 -350.0002,873 -777.0002,1573 -1361.0002,2234 -163,184 -734,756 -970,970 -224,203 -517,459 -747,653 l -175,149 339,611 c 187,337 394,710 461,829 l 120,217 270,-262 c 148,-144 317,-299 376,-345 126,-99 480,-338 603,-407 49,-28 88,-56 88,-62 0,-7 33,-29 73,-50 92,-47 411,-192 415,-189 9,9 -224,486 -237,486 -5,0 -35,44 -66,97 -99,167 -261,408 -386,573 -108,143 -176,215 -731,772 -670,671.0001 -989,974.0001 -1297,1231.0001 -25,21 -30,31 -22,40 8,10 -10,41 -72,127 -45,62 -87,115 -92,117 -11,3 -552,-534 -545,-540 3,-2 56,-40 119,-85 79,-57 120,-80 135,-77 17,3 42,-21 131,-127 146,-173 345,-388 647,-700.0001 l 248,-256 -707,-665 -707,-665 -75,59 c -285,224 -938,711 -1302,972 -125,89 -225,167 -222,173 3,10 -360,1110.0001 -369,1120.0001 -2,1 -119,12 -261,25 l -259,22 -1074,-1074.0001 -1075,-1074 7,-80 c 4,-44 14,-161 23,-260 l 16,-180 540,-182 c 297,-100 553,-184 568,-185 24,-3 44,-25 125,-138 284,-399 719,-988 970,-1313 62,-81 112,-151 110,-156 -2,-5 -97,-110 -213,-232 -115,-123 -401,-426 -634,-674 -233,-247 -434,-461 -447,-474 l -23,-25 -258,255 c -269,264 -516,494 -716,664 -87,74 -113,102 -106,112 8,9 -12,44 -76,134 l -88,121 -272.0002,-269 c -149,-147 -271,-271 -271,-275 1,-4 55,-45 120,-93 82,-58 122,-82 130,-75 9,6 54.0001,-39 153.0002,-153 252,-290 426,-472 1092,-1138 583,-583 672,-668 796,-761 172,-128 355,-253 532,-360 73,-45 133,-85 133,-90 0,-13 477,-244 486,-235 4,4 -111,260 -170,377 -26,52 -56,102 -66,110 -11,8 -45,58 -76,110 -93,156 -254,396 -369,549 -81,107 -174,210 -368,408 -153,154 -256,267 -251,273 11,10 1637,911 1639,907 11,-17 390,-465 506,-597 702,-803 1290,-1370 1814,-1750 841,-609 1925,-1087 3020,-1330 76,-17 141,-33 144,-35 2,-3 -2,-11 -8,-19 -11,-13 0,-19 71.0002,-40 238,-71.0005 506,-129.0005 653,-142.0005 l 79.9996,-6 503,-502.00001 c 352,-351 500,-505 496,-516.0002 -35,-83 -21,-147 46,-212.000001 56,-52.9999998 112,-69 175,-47.9999998 44,13.9999998 100,61.9999998 121,101.0000008 20,40 18,127 -5,164 z"
     id="spaceship"
     inkscape:connector-curvature="0"
     style="fill-opacity:1;fill:#ffffff" />
</svg>
